<svg id="Layer_1" data-name="Layer 1" xmlns="http://www.w3.org/2000/svg" viewBox="0 0 256 256"><defs><style>.cls-1{fill:#a41313;}.cls-2{fill:#00404c;}</style></defs><rect class="cls-1" x="113" y="68" width="81" height="24" rx="12"/><rect class="cls-1" x="113" y="116" width="51" height="24" rx="12"/><rect class="cls-1" x="20" y="164" width="114" height="24" rx="11.99"/><rect class="cls-1" x="212" y="68" width="28" height="24" rx="12"/><rect class="cls-1" x="182" y="115.93" width="58" height="24" rx="11.97"/><rect class="cls-1" x="152" y="164" width="88" height="24" rx="12"/><path class="cls-2" d="M62.65,70.65l6.58,20.24a3.83,3.83,0,0,0,3.65,2.65H94.15a3.84,3.84,0,0,1,2.26,6.95L79.2,113a3.84,3.84,0,0,0-1.4,4.29l6.58,20.24a3.84,3.84,0,0,1-5.91,4.29l-17.21-12.5a3.84,3.84,0,0,0-4.52,0l-17.21,12.5a3.84,3.84,0,0,1-5.91-4.29l6.58-20.24A3.84,3.84,0,0,0,38.8,113l-17.21-12.5a3.84,3.84,0,0,1,2.26-6.95H45.12a3.83,3.83,0,0,0,3.65-2.65l6.58-20.24A3.84,3.84,0,0,1,62.65,70.65Z"/></svg>